<svg width="369" height="159" fill="none" xmlns="http://www.w3.org/2000/svg"><defs><linearGradient id="Property 1=21:9__c" x1="173.845" y1="-30.265" x2="241.275" y2="142.881" gradientUnits="userSpaceOnUse"><stop stop-color="#B6D6EA"/><stop offset=".258" stop-color="#90B8D6"/><stop offset=".576" stop-color="#689AC0"/><stop offset=".828" stop-color="#4F87B3"/><stop offset=".981" stop-color="#4680AF"/></linearGradient><linearGradient id="Property 1=21:9__d" x1="119.604" y1="-69.352" x2="246.032" y2="213.347" gradientUnits="userSpaceOnUse"><stop offset=".445" stop-color="#B6D6EA"/><stop offset=".586" stop-color="#90B8D6"/><stop offset=".76" stop-color="#689AC0"/><stop offset=".897" stop-color="#4F87B3"/><stop offset=".981" stop-color="#4680AF"/></linearGradient><linearGradient id="Property 1=21:9__e" x1="295.776" y1="-11.977" x2="431.146" y2="452.514" gradientUnits="userSpaceOnUse"><stop offset=".035" stop-color="#fff"/><stop offset=".552" stop-color="#fff"/><stop offset=".599" stop-color="#EEF5F9"/><stop offset=".709" stop-color="#CDE1ED"/><stop offset=".8" stop-color="#B9D5E6"/><stop offset=".861" stop-color="#B2D1E4"/></linearGradient><linearGradient id="Property 1=21:9__f" x1="149.774" y1="-158.626" x2="380.212" y2="226.34" gradientUnits="userSpaceOnUse"><stop offset=".035" stop-color="#fff"/><stop offset=".2" stop-color="#F3F9FB"/><stop offset=".493" stop-color="#D5E9F2"/><stop offset=".552" stop-color="#CFE6F0"/><stop offset=".563" stop-color="#CDE4EF"/><stop offset=".741" stop-color="#B9D6E7"/><stop offset=".861" stop-color="#B2D1E4"/></linearGradient><linearGradient id="Property 1=21:9__g" x1="301.712" y1="17.122" x2="412.786" y2="398.248" gradientUnits="userSpaceOnUse"><stop offset=".035" stop-color="#fff"/><stop offset=".2" stop-color="#F3F9FB"/><stop offset=".493" stop-color="#D5E9F2"/><stop offset=".552" stop-color="#CFE6F0"/><stop offset=".563" stop-color="#CDE4EF"/><stop offset=".741" stop-color="#B9D6E7"/><stop offset=".861" stop-color="#B2D1E4"/></linearGradient><clipPath id="Property 1=21:9__a"><path fill="#fff" d="M0 0h369v158.144H0z"/></clipPath><clipPath id="Property 1=21:9__b"><path fill="#fff" transform="translate(86 -46)" d="M0 0h198v230H0z"/></clipPath></defs><g clip-path="url(#Property 1=21:9__a)"><g clip-path="url(#Property 1=21:9__b)"><path d="M284 88.628c0 53.198-33.316 84.196-74.413 69.235-41.097-14.96-74.413-70.213-74.413-123.411 0-53.198 33.316-84.196 74.413-69.236C250.684-19.824 284 35.43 284 88.628Z" fill="url(#Property 1=21:9__c)"/><path d="M279.636 96.93c0-59.79-37.444-121.89-83.633-138.704-17.921-6.523-34.523-5.267-48.135 2.2l-.001-.002-.039.024a53.138 53.138 0 0 0-3.812 2.311L119.381-22.3l.001.002C99.185-11.135 86 14.554 86 49.03c0 56.46 35.359 115.102 78.977 130.98 10.317 3.756 20.17 4.779 29.204 3.41l.001.004 31.894-4.95a53.697 53.697 0 0 0 2.26-.351l.09-.014c30.086-5.442 51.21-36.272 51.21-81.18Z" fill="url(#Property 1=21:9__d)"/><path d="M243.389 106.323c0 56.259-35.233 89.04-78.694 73.219C121.233 163.721 86 105.288 86 49.03c0-56.26 35.233-89.04 78.695-73.22 43.461 15.822 78.694 74.254 78.694 130.513Z" fill="url(#Property 1=21:9__e)"/><path d="M165.502-22.85C122.04-38.673 86.807-5.89 86.807 50.367c0 27.864 8.646 56.258 22.651 79.747 14.207 23.3 33.711 41.591 55.236 49.427 43.462 15.821 78.695-16.96 78.695-73.219 0-27.864-8.646-56.258-22.65-79.747-14.208-23.3-33.712-41.59-55.237-49.427Z" fill="url(#Property 1=21:9__f)"/><path fill-rule="evenodd" clip-rule="evenodd" d="M189.41 101.311c-6.057-2.205-10.561-8.438-11.206-15.51l-.009-.088-1.796-.654a16.051 16.051 0 0 1-.136-2.058c0-.672.046-1.33.136-1.958l1.889.687.011-.075c.931-6.057 5.396-8.73 11.111-6.649 6.18 2.25 10.497 9.09 10.497 16.634v1.942l-17.821-6.45.017.12c.61 4.376 3.478 8.104 7.307 9.498 2.678.975 5.014.318 6.262-1.756l3.605 3.012c-1.24 2.753-4.548 5.242-9.867 3.305Zm-.226-21.922c-3.405-1.239-6.045.074-6.889 3.427l-.087.344 13.684 4.981-.036-.347c-.33-3.058-2.916-7.037-6.672-8.404Zm-24.936 12.763c-2.251-.82-4.139-1.985-5.609-3.463a14.405 14.405 0 0 1-3.304-5.167c-.709-1.908-1.077-4.038-1.096-6.333l4.357 1.586c.043 1.29.251 2.478.618 3.532.418 1.2 1.04 2.241 1.85 3.093.806.848 1.878 1.52 3.184 1.995 1.307.476 2.378.585 3.185.323.809-.262 1.432-.85 1.85-1.745.366-.788.574-1.825.618-3.084l4.357 1.587c-.019 2.282-.388 4.144-1.096 5.535-.727 1.425-1.838 2.354-3.305 2.76-1.47.41-3.357.2-5.609-.62Zm-17.89-7.046V74.32l4.35 1.583v10.786l-4.35-1.583Zm-15.822-5.76V68.56l4.349 1.583V80.93l-4.349-1.583Zm39.373-.858V68.395l4.349 1.583v10.093l-4.349-1.583Zm-15.671-5.704V62.69l4.349 1.584v10.093l-4.349-1.583Zm-8.066-2.937c-.589-3.72-2.478-6.337-5.325-7.374-3.055-1.112-5.094.076-5.747 3.344l-4.564-1.662v-16.11c1.046-1.179 2.587-1.795 4.349-1.74v12.852l.132-.15c1.606-1.83 4.236-2.258 7.217-1.173 4.886 1.778 8.033 6.876 8.432 13.65l-4.494-1.637Z" fill="url(#Property 1=21:9__g)"/><path fill-rule="evenodd" clip-rule="evenodd" d="M189.41 101.311c-6.057-2.205-10.561-8.438-11.206-15.51l-.009-.088-1.796-.654a16.051 16.051 0 0 1-.136-2.058c0-.672.046-1.33.136-1.958l1.889.687.011-.075c.931-6.057 5.396-8.73 11.111-6.649 6.18 2.25 10.497 9.09 10.497 16.634v1.942l-17.821-6.45.017.12c.61 4.376 3.478 8.104 7.307 9.498 2.678.975 5.014.318 6.262-1.756l3.605 3.012c-1.24 2.753-4.548 5.242-9.867 3.305Zm-.226-21.922c-3.405-1.239-6.045.074-6.889 3.427l-.087.344 13.684 4.981-.036-.347c-.33-3.058-2.916-7.037-6.672-8.404Zm-24.936 12.763c-2.251-.82-4.139-1.985-5.609-3.463a14.405 14.405 0 0 1-3.304-5.167c-.709-1.908-1.077-4.038-1.096-6.333l4.357 1.586c.043 1.29.251 2.478.618 3.532.418 1.2 1.04 2.241 1.85 3.093.806.848 1.878 1.52 3.184 1.995 1.307.476 2.378.585 3.185.323.809-.262 1.432-.85 1.85-1.745.366-.788.574-1.825.618-3.084l4.357 1.587c-.019 2.282-.388 4.144-1.096 5.535-.727 1.425-1.838 2.354-3.305 2.76-1.47.41-3.357.2-5.609-.62Zm-17.89-7.046V74.32l4.35 1.583v10.786l-4.35-1.583Zm-15.822-5.76V68.56l4.349 1.583V80.93l-4.349-1.583Zm39.373-.858V68.395l4.349 1.583v10.093l-4.349-1.583Zm-15.671-5.704V62.69l4.349 1.584v10.093l-4.349-1.583Zm-8.066-2.937c-.589-3.72-2.478-6.337-5.325-7.374-3.055-1.112-5.094.076-5.747 3.344l-4.564-1.662v-16.11c1.046-1.179 2.587-1.795 4.349-1.74v12.852l.132-.15c1.606-1.83 4.236-2.258 7.217-1.173 4.886 1.778 8.033 6.876 8.432 13.65l-4.494-1.637Z" fill="#B2D1E3" style="mix-blend-mode:multiply" opacity=".2"/><path d="M161.756 86.548c.807.849 1.878 1.52 3.185 1.996 1.306.475 2.378.584 3.184.322.81-.262 1.432-.849 1.85-1.745.367-.788.575-1.825.618-3.083l3.622 1.318c.015-.292.04-.572.043-.88L169.9 82.89c-.043 1.258-.251 2.295-.618 3.083-.417.896-1.04 1.483-1.85 1.745-.806.262-1.877.153-3.184-.322-1.307-.476-2.378-1.148-3.184-1.996a8.03 8.03 0 0 1-.677-.829 8.223 8.223 0 0 0 1.369 1.977Zm-30.527-37.354c.906-1.022 2.184-1.62 3.656-1.726v-1.164c-1.762-.054-3.303.562-4.349 1.742v16.11l.693.251V49.194Zm4.348 11.112.132-.15c1.606-1.831 4.236-2.26 7.217-1.174 2.304.839 4.214 2.422 5.639 4.564-1.468-2.73-3.632-4.73-6.331-5.712-2.659-.968-5.034-.724-6.657.637v1.835Zm35.025 9.237 3.656 1.33v-.895l-4.349-1.584v10.094l.693.252v-9.197ZM189.41 96.75c-2.12-.772-3.943-2.26-5.254-4.177 1.318 2.467 3.42 4.406 5.946 5.325 2.678.975 5.014.319 6.262-1.755l2.712 2.265c.07-.133.14-.267.201-.402l-3.606-3.011c-1.247 2.073-3.583 2.73-6.261 1.755Zm7.138-7.807c-.15-1.395-.775-2.98-1.761-4.423.584 1.106.958 2.243 1.069 3.275l.037.346-12.766-4.647c-.05.153-.099.308-.14.47l-.087.344 13.685 4.981-.037-.346Zm-65.319-19.234 3.656 1.33v-.895l-4.349-1.584v10.787l.693.252v-9.89Zm13.817-3.41c.53 1.028.915 2.214 1.126 3.548l.489.178c-.337-1.442-.875-2.702-1.615-3.726Zm10.981 18.371c-.709-1.908-1.077-4.038-1.096-6.333l3.726 1.356a14.28 14.28 0 0 1-.061-.918l-4.357-1.587c.018 2.296.387 4.426 1.096 6.334a14.428 14.428 0 0 0 1.574 3.04 14.5 14.5 0 0 1-.882-1.892Zm22.869 2.279-.008-.088-.577-.21a19.46 19.46 0 0 0 2.956 7.97 19.502 19.502 0 0 1-2.371-7.672Z" fill="#B2D1E3"/><path d="M176.955 84.149c0-.672.046-1.331.137-1.959l1.888.688.011-.075c.931-6.058 5.396-8.73 11.111-6.65 3.004 1.094 5.561 3.277 7.403 6.093-1.864-3.37-4.694-6.002-8.095-7.24-5.715-2.08-10.18.591-11.111 6.648l-.011.076-1.889-.688a13.85 13.85 0 0 0-.136 1.959c0 .671.046 1.364.136 2.057l.601.219c-.028-.38-.045-.757-.045-1.128Zm-29.904-8.682 3.657 1.332v-.896l-4.35-1.584v10.786l.693.252v-9.89Zm7.88-11.629 3.656 1.332v-.897l-4.348-1.583v10.094l.692.252v-9.198Z" fill="#B2D1E3"/></g></g></svg>