<svg width="72" height="72" viewBox="0 0 72 72" fill="none" xmlns="http://www.w3.org/2000/svg">
<rect width="72" height="72" fill="white"/>
<g clip-path="url(#clip0_3136_23737)">
<path d="M31.4482 29.4694C31.3192 29.5698 29.0409 30.8569 29.0409 33.7189C29.0409 37.0292 31.9399 38.2003 32.0267 38.2293C32.0134 38.3007 31.5662 39.8331 30.4982 41.3946C29.546 42.7687 28.5515 44.1406 27.0386 44.1406C25.5256 44.1406 25.1363 43.2595 23.3898 43.2595C21.6878 43.2595 21.0826 44.1696 19.6987 44.1696C18.3149 44.1696 17.3493 42.8981 16.239 41.3366C14.9531 39.503 13.9141 36.6544 13.9141 33.9508C13.9141 29.6144 16.7263 27.3146 19.494 27.3146C20.9647 27.3146 22.1906 28.2827 23.1139 28.2827C23.9927 28.2827 25.3632 27.2566 27.0363 27.2566C27.6704 27.2566 29.9487 27.3146 31.4482 29.4694ZM26.2421 25.4207C26.934 24.5976 27.4235 23.4555 27.4235 22.3134C27.4235 22.155 27.4101 21.9944 27.3812 21.8651C26.2554 21.9074 24.916 22.6168 24.1084 23.5559C23.4743 24.2786 22.8825 25.4207 22.8825 26.5785C22.8825 26.7525 22.9114 26.9265 22.9248 26.9822C22.996 26.9956 23.1117 27.0112 23.2274 27.0112C24.2375 27.0112 25.5078 26.3331 26.2421 25.4207Z" fill="white"/>
</g>
<path d="M49.0436 27.6074H40.8589V35.4812H49.0436V27.6074Z" fill="white"/>
<path d="M58.0859 27.6074H49.9012V35.4812H58.0859V27.6074Z" fill="white"/>
<path d="M49.0436 36.2979H40.8589V44.1718H49.0436V36.2979Z" fill="white"/>
<path d="M58.0859 36.2979H49.9012V44.1718H58.0859V36.2979Z" fill="white"/>
<g clip-path="url(#clip1_3136_23737)">
<path d="M31.4273 29.8407C31.299 29.9442 29.0346 31.2713 29.0346 34.2222C29.0346 37.6354 31.916 38.8429 32.0022 38.8728C31.9889 38.9464 31.5445 40.5265 30.483 42.1365C29.5366 43.5533 28.5482 44.9678 27.0445 44.9678C25.5408 44.9678 25.1538 44.0593 23.4179 44.0593C21.7263 44.0593 21.1248 44.9977 19.7494 44.9977C18.374 44.9977 17.4143 43.6867 16.3108 42.0767C15.0327 40.1861 14 37.249 14 34.4614C14 29.9902 16.7951 27.6189 19.5459 27.6189C21.0076 27.6189 22.226 28.6171 23.1437 28.6171C24.0172 28.6171 25.3794 27.5591 27.0423 27.5591C27.6725 27.5591 29.9369 27.6189 31.4273 29.8407ZM26.2528 25.6662C26.9405 24.8175 27.427 23.6399 27.427 22.4623C27.427 22.299 27.4138 22.1334 27.385 22C26.2661 22.0437 24.9349 22.7751 24.1322 23.7434C23.502 24.4886 22.9138 25.6662 22.9138 26.8599C22.9138 27.0393 22.9425 27.2187 22.9558 27.2762C23.0265 27.29 23.1415 27.3061 23.2565 27.3061C24.2604 27.3061 25.5231 26.6069 26.2528 25.6662Z" fill="black"/>
</g>
<path d="M49.1847 28H41V35.8738H49.1847V28Z" fill="#0078D4"/>
<path d="M58.227 28H50.0424V35.8738H58.227V28Z" fill="#0078D4"/>
<path d="M49.1847 36.6906H41V44.5644H49.1847V36.6906Z" fill="#0078D4"/>
<path d="M58.227 36.6906H50.0424V44.5644H58.227V36.6906Z" fill="#0078D4"/>
<defs>
<clipPath id="clip0_3136_23737">
<rect width="18.1104" height="22.3067" fill="white" transform="translate(13.9141 21.8651)"/>
</clipPath>
<clipPath id="clip1_3136_23737">
<rect width="18" height="23" fill="white" transform="translate(14 22)"/>
</clipPath>
</defs>
</svg>
